# xmcd
#
# Track frame offsets:
#	150
#	16344
#	37459
#	63076
#	88349
#	110386
#	136230
#	160806
#	179290
#	207016
#	224384
#	253784
#
# Disc length: 3911 seconds
# Revision: 0
# Processed by: cddbd v1.5.2PL0 Copyright (c) Steve Scherf et al.
# Submitted via: dBpowerAMP V12.0
#
DISCID=aa0f450c
DTITLE=Chris Gates And Gatesville - Welcome To Gatesville
DYEAR=2010
DGENRE=Country
TTITLE0=Those Were The Days
TTITLE1=I'm Not Your Man
TTITLE2=Devil's On My Trail
TTITLE3=Forever Came Today
TTITLE4=Lowdown and Dirty
TTITLE5=Broken Hearts and Faded Pictures
TTITLE6=Loving You
TTITLE7=Searching For You
TTITLE8=Man Of My Dreams
TTITLE9=Southern Man
TTITLE10=Come See About Me
TTITLE11=Simple Man
EXTD=
EXTT0=
EXTT1=
EXTT2=
EXTT3=
EXTT4=
EXTT5=
EXTT6=
EXTT7=
EXTT8=
EXTT9=
EXTT10=
EXTT11=
PLAYORDER=
